<?xml version="1.0" encoding="utf-8"?>

<!DOCTYPE svg PUBLIC "-//W3C//DTD SVG 1.1//EN" "http://www.w3.org/Graphics/SVG/1.1/DTD/svg11.dtd">
<!-- Uploaded to: SVG Repo, www.svgrepo.com, Generator: SVG Repo Mixer Tools -->
<svg height="800px" width="800px" version="1.1" id="_x32_" xmlns="http://www.w3.org/2000/svg" xmlns:xlink="http://www.w3.org/1999/xlink" 
	 viewBox="0 0 512 512"  xml:space="preserve">
<style type="text/css">
	.st0{fill:#000000;}
</style>
<g>
	<path class="st0" d="M466.963,233.298c-0.194-0.647-0.26-1.295-0.455-1.942c-5.633-22.539-19.234-43.007-38.406-59.652
		c-19.82-17.294-45.727-30.507-75.197-37.761c-16.774-4.209-34.715-6.476-53.369-6.476c-18.652,0-36.594,2.268-53.369,6.476
		c-38.018,9.392-70.08,28.628-90.871,53.757c-10.881,13.084-18.652,27.786-22.668,43.396h-3.238
		c-4.34,0-151.428,11.464-126.559,119.822h68.59c-0.064-1.167-0.129-2.332-0.129-3.497c0-3.433,0.324-6.866,0.842-9.845
		c4.793-27.073,28.238-46.763,55.766-46.763s50.973,19.69,55.701,46.568c0.584,3.173,0.906,6.606,0.906,10.04
		c0,1.049-0.059,2.098-0.115,3.149c-0.012,0.032-0.004,0.078-0.014,0.11h0.008c-0.004,0.08-0.004,0.159-0.008,0.238h144.045
		c-0.064-1.167-0.129-2.332-0.129-3.497c0-3.433,0.324-6.866,0.842-9.845c4.793-27.073,28.24-46.763,55.766-46.763
		c27.527,0,50.972,19.69,55.701,46.503c0.584,3.238,0.906,6.672,0.906,10.105c0,1.045-0.058,2.09-0.115,3.137
		c-0.01,0.035-0.002,0.087-0.014,0.122h0.01c-0.006,0.08-0.006,0.159-0.01,0.238h56.719c7.629,0,13.816-6.203,13.844-13.831
		C512.213,263.339,513.328,250.078,466.963,233.298z M159.73,231.02c3.305-9.364,8.41-18.277,15.449-26.739
		c17.553-21.179,44.949-37.242,77.203-45.208c15.156-3.758,30.961-5.699,47.152-5.699c13.303,0,26.304,1.353,38.883,3.949
		c0.89,0.199,1.797,0.346,2.684,0.56l-29.778,73.213H196.498L159.73,231.02z M339.34,231.009l26.844-65.911
		c17.162,6.41,32.449,15.22,44.883,26.1c13.154,11.399,22.516,24.574,27.691,38.49c0.168,0.471,0.367,0.936,0.524,1.408h-73.037
		L339.34,231.009z"/>
	<path class="st0" d="M127.898,310.244c-18.328,0-33.551,13.278-36.594,30.7c-0.389,2.073-0.584,4.274-0.584,6.477
		c0,1.165,0.064,2.33,0.195,3.497c1.748,18.847,17.617,33.615,36.982,33.615s35.234-14.768,36.984-33.615
		c0.129-1.167,0.193-2.332,0.193-3.497c0-2.203-0.193-4.404-0.582-6.477C161.449,323.521,146.228,310.244,127.898,310.244z"/>
	<path class="st0" d="M384.9,310.244c-18.33,0-33.551,13.278-36.594,30.7c-0.388,2.073-0.584,4.274-0.584,6.477
		c0,1.165,0.066,2.33,0.196,3.497c1.748,18.847,17.617,33.615,36.982,33.615c19.365,0,35.234-14.768,36.984-33.615
		c0.129-1.167,0.193-2.332,0.193-3.497c0-2.203-0.193-4.404-0.582-6.477C418.451,323.521,403.23,310.244,384.9,310.244z"/>
</g>
</svg>